<svg xmlns="http://www.w3.org/2000/svg" viewBox="0 0 600 400" role="img">  <defs>
    <linearGradient id="sky-stapleton-concert" x1="0" y1="0" x2="0" y2="1">
      <stop offset="0" stop-color="#22364C"/><stop offset=".55" stop-color="#314962"/><stop offset="1" stop-color="#435970"/>
    </linearGradient>
  </defs>
  <rect width="600" height="400" fill="url(#sky-stapleton-concert)"/>
  <circle cx="432" cy="120" r="44" fill="#F1E2A8" opacity=".9"/>
  <circle cx="432" cy="120" r="44" fill="none" stroke="#F1E2A8" stroke-opacity=".35" stroke-width="10"/><path d="M0 328 q 150 -14 300 0 t 300 0 V 400 H0 Z" fill="#3A4E63"/>  <g>
    <rect x="130" y="180" width="240" height="150" rx="6" fill="#386641"/>
    <g fill="#F6F1E7" opacity=".85"><rect x="150" y="204" width="52" height="12" rx="2"/><rect x="150" y="228" width="52" height="12" rx="2"/><rect x="222" y="204" width="52" height="12" rx="2"/><rect x="222" y="228" width="52" height="12" rx="2"/><rect x="150" y="258" width="124" height="10" rx="2"/></g>
    <g fill="#16222F"><rect x="398" y="140" width="10" height="190"/><path d="M368 118 h70 l8 26 h-86 Z"/><g fill="#F3C77C"><circle cx="380" cy="131" r="6"/><circle cx="403" cy="131" r="6"/><circle cx="426" cy="131" r="6"/></g></g>
    <path d="M110 342 h380" stroke="#16222F" stroke-width="10" stroke-linecap="round" opacity=".6"/>
  </g></svg>